<svg xmlns="http://www.w3.org/2000/svg" xmlns:xlink="http://www.w3.org/1999/xlink" width="457" height="174" viewBox="0 0 457 174">
  <defs>
    <linearGradient id="linear-gradient" x1="0.367" y1="1.764" x2="0.04" y2="-2.623" gradientUnits="objectBoundingBox">
      <stop offset="0" stop-color="#f80"/>
      <stop offset="0.451" stop-color="#ffb600"/>
      <stop offset="1" stop-color="#ffe500"/>
    </linearGradient>
    <clipPath id="clip-Artboard_1">
      <rect width="457" height="174"/>
    </clipPath>
  </defs>
  <g id="Artboard_1" data-name="Artboard – 1" clip-path="url(#clip-Artboard_1)">
    <g id="Group_2075" data-name="Group 2075" transform="translate(-3229 -1661)">
      <path id="Path_67" data-name="Path 67" d="M57.675,132.609,10.181,119.493C.761,116.572.858,110.952.388,103.917.1,99.491-.253,36.368.276,27.038c.343-6.066,1.222-11.1,9.9-13.988L56.267.313a3.41,3.41,0,0,1,2.914.03L105.17,13.049c8.69,2.892,9.569,7.922,9.912,13.988.522,9.33.179,72.453-.119,76.88-.47,7.035-.373,12.654-9.793,15.576ZM26.748,94.535c2.109.157,20.047.328,36.465.35,12.3.022,23.773-.037,27.1-.246A12.07,12.07,0,0,0,94.8,93.558a6.172,6.172,0,0,0,2.452-1.982,3.136,3.136,0,0,0,.566-1.982,4.8,4.8,0,0,0-.447-1.707,5.7,5.7,0,0,0-1.781-2.236,8.29,8.29,0,0,0-3.13-1.379,4.351,4.351,0,0,1-3.532-3.5c-.842-4.166-2.28-6.871-3.95-8.578a9.3,9.3,0,0,0-6.275-2.765,4.3,4.3,0,0,1-4.062-2.661A25.126,25.126,0,0,0,68.273,57.7l.007-.007-.007-.007a20.559,20.559,0,0,0-9.137-4.613c-.477-.119-1.073-.224-1.8-.335-.6-.089-1.23-.164-1.863-.216-17.2-1.379-20.517,13.921-20.889,16.015a4.386,4.386,0,0,1-4.009,4.009,15.273,15.273,0,0,0-3.294.6A14.5,14.5,0,0,0,24.3,74.391a13.14,13.14,0,0,0-6.737,12.7c.209,2.795.924,4.524,2.139,5.492,1.453,1.163,3.838,1.722,7.043,1.953Z" transform="translate(3250.878 1681.391)" fill-rule="evenodd" fill="url(#linear-gradient)"/>
      <path id="Path_4240" data-name="Path 4240" d="M32.848-36.66,20.836-13.884V0H16.052V-13.884L3.988-36.66H9.5l9,17.732L27.44-36.66ZM45.58-28.912a15.145,15.145,0,0,1,7.358,1.768,12.652,12.652,0,0,1,5.1,5.1,15.825,15.825,0,0,1,1.846,7.8,15.677,15.677,0,0,1-1.846,7.774,12.7,12.7,0,0,1-5.1,5.07A15.145,15.145,0,0,1,45.58.364,15.145,15.145,0,0,1,38.222-1.4,12.866,12.866,0,0,1,33.1-6.474a15.5,15.5,0,0,1-1.872-7.774,15.648,15.648,0,0,1,1.872-7.8,12.821,12.821,0,0,1,5.122-5.1A15.145,15.145,0,0,1,45.58-28.912Zm0,4.16a9.892,9.892,0,0,0-4.706,1.144A8.6,8.6,0,0,0,37.39-20.1a11.822,11.822,0,0,0-1.326,5.85,11.706,11.706,0,0,0,1.326,5.8,8.6,8.6,0,0,0,3.484,3.51A9.892,9.892,0,0,0,45.58-3.8,9.892,9.892,0,0,0,50.286-4.94,8.6,8.6,0,0,0,53.77-8.45a11.706,11.706,0,0,0,1.326-5.8A11.822,11.822,0,0,0,53.77-20.1a8.6,8.6,0,0,0-3.484-3.51A9.892,9.892,0,0,0,45.58-24.752Zm47.864-3.8V0H88.712V-6.708a9.6,9.6,0,0,1-3.874,5.33A11.437,11.437,0,0,1,78.364.468a10.6,10.6,0,0,1-8.008-3.2q-3.068-3.2-3.068-9.178v-16.64H72.02v16.172A9.216,9.216,0,0,0,74.2-5.8a7.761,7.761,0,0,0,5.928,2.314,8.1,8.1,0,0,0,6.24-2.522q2.34-2.522,2.34-7.358V-28.548Zm12.324,5.772a10.5,10.5,0,0,1,4.108-4.6,12.21,12.21,0,0,1,6.448-1.638v5.148h-1.456a10.111,10.111,0,0,0-6.552,2.054q-2.548,2.054-2.548,6.786V0h-4.732V-28.548h4.732ZM138.58-3.692h13V0H133.848V-36.66h4.732Zm30.784-25.22a15.145,15.145,0,0,1,7.358,1.768,12.652,12.652,0,0,1,5.1,5.1,15.825,15.825,0,0,1,1.846,7.8,15.677,15.677,0,0,1-1.846,7.774,12.7,12.7,0,0,1-5.1,5.07A15.145,15.145,0,0,1,169.364.364,15.145,15.145,0,0,1,162.006-1.4a12.866,12.866,0,0,1-5.122-5.07,15.5,15.5,0,0,1-1.872-7.774,15.648,15.648,0,0,1,1.872-7.8,12.821,12.821,0,0,1,5.122-5.1A15.145,15.145,0,0,1,169.364-28.912Zm0,4.16a9.892,9.892,0,0,0-4.706,1.144,8.6,8.6,0,0,0-3.484,3.51,11.822,11.822,0,0,0-1.326,5.85,11.706,11.706,0,0,0,1.326,5.8,8.6,8.6,0,0,0,3.484,3.51A9.892,9.892,0,0,0,169.364-3.8,9.892,9.892,0,0,0,174.07-4.94a8.6,8.6,0,0,0,3.484-3.51,11.706,11.706,0,0,0,1.326-5.8,11.822,11.822,0,0,0-1.326-5.85,8.6,8.6,0,0,0-3.484-3.51A9.892,9.892,0,0,0,169.364-24.752Zm32.188-4.16a11.731,11.731,0,0,1,7.046,2.08,10.841,10.841,0,0,1,4.03,5.564v-7.28h4.732v33.5a14.488,14.488,0,0,1-1.664,7.02,11.952,11.952,0,0,1-4.68,4.784A13.951,13.951,0,0,1,204,18.469a15.071,15.071,0,0,1-9.412-2.782,12.277,12.277,0,0,1-4.628-7.514h4.68a8.105,8.105,0,0,0,3.146,4.5,10.071,10.071,0,0,0,5.954,1.638,8.731,8.731,0,0,0,6.37-2.47,9.2,9.2,0,0,0,2.522-6.89V-7.28a10.841,10.841,0,0,1-4.03,5.564,11.731,11.731,0,0,1-7.046,2.08,12.94,12.94,0,0,1-6.76-1.768,12.228,12.228,0,0,1-4.654-5.07,16.854,16.854,0,0,1-1.69-7.774,17.016,17.016,0,0,1,1.69-7.8,12.2,12.2,0,0,1,4.654-5.1A12.94,12.94,0,0,1,201.552-28.912ZM202.9-24.7a9.165,9.165,0,0,0-6.994,2.782,10.726,10.726,0,0,0-2.626,7.67,10.726,10.726,0,0,0,2.626,7.67A9.165,9.165,0,0,0,202.9-3.8a9.71,9.71,0,0,0,5.018-1.3,9.05,9.05,0,0,0,3.458-3.666,11.589,11.589,0,0,0,1.248-5.486,11.745,11.745,0,0,0-1.248-5.512,8.838,8.838,0,0,0-3.458-3.666A9.864,9.864,0,0,0,202.9-24.7Zm34.944-4.212a15.145,15.145,0,0,1,7.358,1.768,12.652,12.652,0,0,1,5.1,5.1,15.825,15.825,0,0,1,1.846,7.8A15.677,15.677,0,0,1,250.3-6.474a12.7,12.7,0,0,1-5.1,5.07A15.145,15.145,0,0,1,237.848.364,15.145,15.145,0,0,1,230.49-1.4a12.866,12.866,0,0,1-5.122-5.07,15.5,15.5,0,0,1-1.872-7.774,15.648,15.648,0,0,1,1.872-7.8,12.821,12.821,0,0,1,5.122-5.1A15.145,15.145,0,0,1,237.848-28.912Zm0,4.16a9.892,9.892,0,0,0-4.706,1.144,8.6,8.6,0,0,0-3.484,3.51,11.822,11.822,0,0,0-1.326,5.85,11.706,11.706,0,0,0,1.326,5.8,8.6,8.6,0,0,0,3.484,3.51A9.892,9.892,0,0,0,237.848-3.8a9.892,9.892,0,0,0,4.706-1.144,8.6,8.6,0,0,0,3.484-3.51,11.706,11.706,0,0,0,1.326-5.8,11.822,11.822,0,0,0-1.326-5.85,8.6,8.6,0,0,0-3.484-3.51A9.892,9.892,0,0,0,237.848-24.752Z" transform="translate(3388 1754)" fill="#fff" stroke="#fff" stroke-linecap="round" stroke-linejoin="round" stroke-width="4"/>
      <path id="Path_4241" data-name="Path 4241" d="M3.91-4.216V0H1V-12.019H5.712a4.573,4.573,0,0,1,3.264,1.063A3.758,3.758,0,0,1,10.1-8.092a3.946,3.946,0,0,1-.5,2A3.477,3.477,0,0,1,8.109-4.718a5.24,5.24,0,0,1-2.4.5ZM5.389-6.545q1.751,0,1.751-1.547,0-1.581-1.751-1.581H3.91v3.128ZM19.72-12.206a6.115,6.115,0,0,1,3.085.791A5.759,5.759,0,0,1,24.99-9.222a6.29,6.29,0,0,1,.8,3.17,6.285,6.285,0,0,1-.807,3.179,5.8,5.8,0,0,1-2.193,2.2A6.082,6.082,0,0,1,19.72.119a6.082,6.082,0,0,1-3.069-.791,5.8,5.8,0,0,1-2.193-2.2,6.285,6.285,0,0,1-.807-3.179,6.238,6.238,0,0,1,.807-3.17,5.82,5.82,0,0,1,2.193-2.193A6.082,6.082,0,0,1,19.72-12.206Zm0,2.7a2.914,2.914,0,0,0-2.27.926,3.614,3.614,0,0,0-.841,2.525,3.62,3.62,0,0,0,.841,2.516,2.9,2.9,0,0,0,2.27.935,2.908,2.908,0,0,0,2.261-.935,3.6,3.6,0,0,0,.85-2.516,3.62,3.62,0,0,0-.841-2.516A2.9,2.9,0,0,0,19.72-9.5Zm26.52-2.516L43.367,0h-3.6L37.842-8.041,35.9,0H32.3L29.427-12.019h3.162l1.547,8.7,2.108-8.7h3.179l2.108,8.7,1.564-8.7Zm6.919,2.312v2.516h4.063V-5H53.159v2.669h4.573V0h-7.48V-12.019h7.48v2.312ZM68.034,0l-2.6-4.539H64.77V0H61.863V-12.019h4.964a5.359,5.359,0,0,1,2.414.493,3.4,3.4,0,0,1,1.479,1.352,3.872,3.872,0,0,1,.493,1.964,3.49,3.49,0,0,1-.722,2.227,3.693,3.693,0,0,1-2.1,1.258L71.247,0ZM64.77-6.528h1.8a1.815,1.815,0,0,0,1.275-.383,1.476,1.476,0,0,0,.408-1.131,1.5,1.5,0,0,0-.417-1.122,1.745,1.745,0,0,0-1.267-.408h-1.8ZM78.064-9.707v2.516h4.063V-5H78.064v2.669h4.573V0h-7.48V-12.019h7.48v2.312ZM97.58-6.035A6.375,6.375,0,0,1,96.824-2.9,5.3,5.3,0,0,1,94.647-.765,6.94,6.94,0,0,1,91.307,0H86.768V-12.019h4.539a7.056,7.056,0,0,1,3.349.748,5.219,5.219,0,0,1,2.168,2.108A6.327,6.327,0,0,1,97.58-6.035ZM91.052-2.6A3.674,3.674,0,0,0,93.7-3.5a3.336,3.336,0,0,0,.944-2.533A3.336,3.336,0,0,0,93.7-8.568a3.674,3.674,0,0,0-2.643-.9H89.675V-2.6ZM114.8-6.188a3.01,3.01,0,0,1,1.726,1.054,2.885,2.885,0,0,1,.637,1.853,2.986,2.986,0,0,1-1.028,2.414,4.456,4.456,0,0,1-2.95.867h-5.593V-12.019h5.457a4.456,4.456,0,0,1,2.839.8,2.743,2.743,0,0,1,1,2.278,2.806,2.806,0,0,1-.578,1.811A2.664,2.664,0,0,1,114.8-6.188Zm-4.3-.918h1.9q1.513,0,1.513-1.292T112.37-9.69H110.5Zm2.074,4.743q1.615,0,1.615-1.326a1.263,1.263,0,0,0-.425-1.012,1.8,1.8,0,0,0-1.207-.365H110.5v2.7Zm18.989-9.656L127.4-4V0h-2.924V-4l-4.165-8.024h3.332l2.312,4.9,2.312-4.9Zm13.617-.527a4.94,4.94,0,0,1,2.159.434,3.176,3.176,0,0,1,1.368,1.19,3.184,3.184,0,0,1,.467,1.708,2.825,2.825,0,0,1-.6,1.887,2.617,2.617,0,0,1-1.5.9v.085A2.9,2.9,0,0,1,149.4-3.434a3.563,3.563,0,0,1-.476,1.844,3.219,3.219,0,0,1-1.386,1.258,4.877,4.877,0,0,1-2.184.45,4.955,4.955,0,0,1-3.29-1.02,4.111,4.111,0,0,1-1.317-3.111h2.839a1.958,1.958,0,0,0,.442,1.258,1.509,1.509,0,0,0,1.19.459,1.327,1.327,0,0,0,.995-.374,1.328,1.328,0,0,0,.365-.969q0-1.479-2.142-1.479h-.544V-7.48h.527q1.921.034,1.921-1.377A1.276,1.276,0,0,0,146-9.8a1.206,1.206,0,0,0-.893-.332,1.21,1.21,0,0,0-.969.417,1.872,1.872,0,0,0-.408,1.113H140.9a4.042,4.042,0,0,1,1.19-2.924A4.391,4.391,0,0,1,145.18-12.546Zm19.448,6.511a6.375,6.375,0,0,1-.757,3.137A5.3,5.3,0,0,1,161.7-.765a6.94,6.94,0,0,1-3.34.765h-4.539V-12.019h4.539a7.057,7.057,0,0,1,3.349.748,5.219,5.219,0,0,1,2.167,2.108A6.327,6.327,0,0,1,164.628-6.035ZM158.1-2.6a3.674,3.674,0,0,0,2.643-.9,3.336,3.336,0,0,0,.944-2.533,3.336,3.336,0,0,0-.944-2.533,3.674,3.674,0,0,0-2.643-.9h-1.377V-2.6Zm13.566-1.615V0h-2.907V-12.019h4.709a4.573,4.573,0,0,1,3.264,1.063,3.758,3.758,0,0,1,1.122,2.865,3.947,3.947,0,0,1-.5,2,3.477,3.477,0,0,1-1.488,1.377,5.24,5.24,0,0,1-2.4.5Zm1.479-2.329q1.751,0,1.751-1.547,0-1.581-1.751-1.581h-1.479v3.128ZM187.935,0l-2.6-4.539h-.663V0h-2.907V-12.019h4.964a5.359,5.359,0,0,1,2.414.493,3.4,3.4,0,0,1,1.479,1.352,3.872,3.872,0,0,1,.493,1.964,3.49,3.49,0,0,1-.723,2.227,3.693,3.693,0,0,1-2.1,1.258L191.148,0Zm-3.264-6.528h1.8a1.815,1.815,0,0,0,1.275-.383,1.476,1.476,0,0,0,.408-1.131,1.5,1.5,0,0,0-.417-1.122,1.745,1.745,0,0,0-1.266-.408h-1.8Zm13.294-5.491V0h-2.907V-12.019ZM213.129,0h-2.907L205.36-7.378V0h-2.907V-12.019h2.907l4.862,7.446v-7.446h2.907Zm13.124-12.019v2.312h-3.264V0h-2.924V-9.707h-3.23v-2.312Zm6.613,2.312v2.516h4.063V-5h-4.063v2.669h4.573V0h-7.48V-12.019h7.48v2.312ZM247.741,0l-2.6-4.539h-.663V0H241.57V-12.019h4.964a5.359,5.359,0,0,1,2.414.493,3.4,3.4,0,0,1,1.479,1.352,3.872,3.872,0,0,1,.493,1.964,3.49,3.49,0,0,1-.723,2.227,3.693,3.693,0,0,1-2.1,1.258L250.954,0Zm-3.264-6.528h1.8a1.815,1.815,0,0,0,1.275-.383,1.476,1.476,0,0,0,.408-1.131,1.5,1.5,0,0,0-.417-1.122,1.745,1.745,0,0,0-1.266-.408h-1.8Zm16.1-5.678a6.115,6.115,0,0,1,3.085.791,5.759,5.759,0,0,1,2.185,2.193,6.29,6.29,0,0,1,.8,3.17,6.285,6.285,0,0,1-.808,3.179,5.8,5.8,0,0,1-2.193,2.2,6.082,6.082,0,0,1-3.068.791,6.082,6.082,0,0,1-3.069-.791,5.8,5.8,0,0,1-2.193-2.2,6.285,6.285,0,0,1-.808-3.179,6.238,6.238,0,0,1,.808-3.17,5.82,5.82,0,0,1,2.193-2.193A6.082,6.082,0,0,1,260.576-12.206Zm0,2.7a2.914,2.914,0,0,0-2.27.926,3.614,3.614,0,0,0-.842,2.525,3.62,3.62,0,0,0,.842,2.516,2.9,2.9,0,0,0,2.27.935,2.908,2.908,0,0,0,2.261-.935,3.6,3.6,0,0,0,.85-2.516,3.62,3.62,0,0,0-.841-2.516A2.9,2.9,0,0,0,260.576-9.5ZM279.4-3.383a3.314,3.314,0,0,1-.484,1.751,3.417,3.417,0,0,1-1.428,1.275A5.031,5.031,0,0,1,275.2.119a5.385,5.385,0,0,1-3.332-.986,3.573,3.573,0,0,1-1.428-2.754h3.094a1.633,1.633,0,0,0,.485,1.071,1.49,1.49,0,0,0,1.063.391,1.233,1.233,0,0,0,.884-.306,1.071,1.071,0,0,0,.323-.816,1.054,1.054,0,0,0-.3-.765,2.332,2.332,0,0,0-.74-.5q-.442-.2-1.224-.468a15.027,15.027,0,0,1-1.862-.756,3.429,3.429,0,0,1-1.241-1.088,3.148,3.148,0,0,1-.518-1.878,3.163,3.163,0,0,1,.544-1.853,3.458,3.458,0,0,1,1.5-1.2,5.488,5.488,0,0,1,2.2-.417,4.935,4.935,0,0,1,3.188.952,3.632,3.632,0,0,1,1.335,2.618h-3.145a1.613,1.613,0,0,0-.434-.944,1.275,1.275,0,0,0-.944-.348,1.216,1.216,0,0,0-.824.272,1,1,0,0,0-.315.8,1.015,1.015,0,0,0,.281.722,2.137,2.137,0,0,0,.706.485q.425.187,1.224.476a13.454,13.454,0,0,1,1.887.773,3.61,3.61,0,0,1,1.258,1.114A3.181,3.181,0,0,1,279.4-3.383Z" transform="translate(3377 1805)" fill="#fff"/>
      <g id="Rectangle_1061" data-name="Rectangle 1061" transform="translate(3376 1698)" fill="none" stroke="#ffa900" stroke-width="2">
        <rect width="282" height="83" rx="10" stroke="none"/>
        <rect x="1" y="1" width="280" height="81" rx="9" fill="none"/>
      </g>
    </g>
  </g>
</svg>
