<svg xmlns="http://www.w3.org/2000/svg" id="logo" width="276.034" height="61.443" viewBox="0 0 276.034 61.443">
    <defs>
        <linearGradient id="linear-gradient" x1=".367" x2=".04" y1="1.764" y2="-2.623" gradientUnits="objectBoundingBox">
            <stop offset="0" stop-color="#f80"/>
            <stop offset=".451" stop-color="#ffb600"/>
            <stop offset="1" stop-color="#ffe500"/>
        </linearGradient>
        <style>
            .cls-2{fill-rule:evenodd;fill:url(#linear-gradient)}
        </style>
    </defs>
    <path id="Path_46" fill="#fff" fill-rule="evenodd" d="M514.178 2709.709a8.282 8.282 0 0 1-2.884 6.563 11.12 11.12 0 0 1-7.586 2.508 13.477 13.477 0 0 1-6.169-1.294q-2.552-1.3-2.556-3.041a2.59 2.59 0 0 1 .823-2 3.134 3.134 0 0 1 2.212-.758 12.5 12.5 0 0 1 2.876.683 12.833 12.833 0 0 0 3.686.683 3.064 3.064 0 0 0 2.162-.8 2.555 2.555 0 0 0 .873-1.977 2.59 2.59 0 0 0-.891-2.056 11.513 11.513 0 0 0-3.819-1.66q-4.248-1.266-5.93-2.993a6.4 6.4 0 0 1-1.691-4.658 7.806 7.806 0 0 1 2.72-6.151 10.3 10.3 0 0 1 7.071-2.394 10.894 10.894 0 0 1 5.284 1.141c1.386.766 2.074 1.714 2.074 2.842a2.523 2.523 0 0 1-.732 1.925 2.839 2.839 0 0 1-2.03.693 9.715 9.715 0 0 1-2.353-.472 9.757 9.757 0 0 0-2.467-.474 3.462 3.462 0 0 0-2.186.638 2.031 2.031 0 0 0-.815 1.673q0 1.653 3.6 2.782c.56.172.987.313 1.3.406a13.141 13.141 0 0 1 5.659 3.268 7.084 7.084 0 0 1 1.777 4.92zm.873-20.814h-.151a1.7 1.7 0 0 1-.362-.036.847.847 0 0 1-.3-.118.655.655 0 0 1-.208-.232.725.725 0 0 1 0-.618.585.585 0 0 1 .211-.234.855.855 0 0 1 .3-.117 1.848 1.848 0 0 1 .362-.034h1.756a1.839 1.839 0 0 1 .359.034.893.893 0 0 1 .3.117.6.6 0 0 1 .211.234.7.7 0 0 1 .068.31.649.649 0 0 1-.07.3.616.616 0 0 1-.208.232.9.9 0 0 1-.3.115 1.712 1.712 0 0 1-.359.036h-.151v2.605a1.715 1.715 0 0 1-.036.365.834.834 0 0 1-.128.3.723.723 0 0 1-1.128 0 .867.867 0 0 1-.128-.3 1.706 1.706 0 0 1-.037-.365zm2.655 2.452l.542-3.021a1.576 1.576 0 0 1 .1-.366.812.812 0 0 1 .182-.284.694.694 0 0 1 .276-.171.979.979 0 0 1 .339-.053 1.037 1.037 0 0 1 .323.047.841.841 0 0 1 .279.153.827.827 0 0 1 .2.247 1.227 1.227 0 0 1 .122.319l.448 1.758.419-1.764a1.324 1.324 0 0 1 .117-.313.835.835 0 0 1 .2-.247.783.783 0 0 1 .271-.154.978.978 0 0 1 .32-.049 1.08 1.08 0 0 1 .352.055.767.767 0 0 1 .287.18.9.9 0 0 1 .19.3 1.783 1.783 0 0 1 .1.385l.492 3.051v.005l.016.128v.016l.005.057v.068a.884.884 0 0 1-.049.294.664.664 0 0 1-.156.247.723.723 0 0 1-.242.159.8.8 0 0 1-.289.052.636.636 0 0 1-.508-.227.822.822 0 0 1-.143-.253 1.483 1.483 0 0 1-.073-.307l-.169-1.4-.029.13q-.148.595-.227.9c-.06.216-.115.4-.162.542a1.868 1.868 0 0 1-.141.332.639.639 0 0 1-.112.132.626.626 0 0 1-.151.094.9.9 0 0 1-.169.047 1.329 1.329 0 0 1-.18.013.991.991 0 0 1-.292-.039.671.671 0 0 1-.245-.133.716.716 0 0 1-.169-.221 1.328 1.328 0 0 1-.107-.287l-.375-1.561-.185 1.395a1.807 1.807 0 0 1-.078.341.935.935 0 0 1-.149.271.623.623 0 0 1-.234.177.716.716 0 0 1-.289.06.782.782 0 0 1-.287-.052.626.626 0 0 1-.237-.162.709.709 0 0 1-.148-.247.876.876 0 0 1-.047-.292V2691.613l.005-.071v-.007l.01-.081v-.01l.018-.089zm-6.693 41.924a1.115 1.115 0 1 0 2.217 0v-5.114h.633a.974.974 0 1 0 0-1.941h-.633v-1.326a1.115 1.115 0 1 0-2.217 0v1.326h-.492a.949.949 0 0 0-.972.969.9.9 0 0 0 .972.972h.492zm-9.105 0a1.116 1.116 0 1 0 2.22 0v-3.866a1.434 1.434 0 1 1 2.863 0v3.866a1.116 1.116 0 1 0 2.22 0v-4.252a2.842 2.842 0 0 0-3.035-2.988 2.4 2.4 0 0 0-2.141.91.937.937 0 0 0-1.016-.819 1.122 1.122 0 0 0-1.11 1.235zm-1.756-2.217c.677 0 .969-.323.969-.988a3.988 3.988 0 1 0-7.964.264 4.042 4.042 0 0 0 4.161 4.268c1.647 0 3.619-.925 3.619-1.879a.983.983 0 0 0-.909-.956c-.584 0-1.37.894-2.509.894a1.917 1.917 0 0 1-2.1-1.6h4.731zm-4.776-1.48a1.781 1.781 0 0 1 1.756-1.693 1.755 1.755 0 0 1 1.772 1.693h-3.528zm-14.868 3.7a1.115 1.115 0 1 0 2.217 0v-3.866c0-.894.4-1.523 1.311-1.523.8 0 1.295.63 1.295 1.523v3.866a1.115 1.115 0 1 0 2.217 0v-3.866a1.344 1.344 0 0 1 1.31-1.523c.8 0 1.295.63 1.295 1.523v3.866a1.115 1.115 0 1 0 2.217 0v-4.252a2.78 2.78 0 0 0-3.035-2.988 3.349 3.349 0 0 0-2.342 1.125 2.827 2.827 0 0 0-2.3-1.125 2.751 2.751 0 0 0-2.063.925.939.939 0 0 0-1.016-.834 1.122 1.122 0 0 0-1.11 1.235zm-1.756-2.217c.677 0 .969-.323.969-.988a3.988 3.988 0 1 0-7.964.264 4.042 4.042 0 0 0 4.161 4.268c1.646 0 3.619-.925 3.619-1.879a.983.983 0 0 0-.909-.956c-.584 0-1.37.894-2.511.894a1.916 1.916 0 0 1-2.095-1.6zm-4.776-1.48a1.781 1.781 0 0 1 1.756-1.693 1.757 1.757 0 0 1 1.772 1.693zm-3.006-2.217a1.122 1.122 0 0 0-1.107-1.235 1.063 1.063 0 0 0-1.11.925 2.418 2.418 0 0 0-2.035-1.016c-2.233 0-3.65 2.079-3.65 4.314 0 2.2 1.094 4.252 3.418 4.252a2.54 2.54 0 0 0 2.235-1.048h.031v.524a1.708 1.708 0 0 1-1.881 1.756c-1.277 0-2.063-.693-2.772-.693a1.08 1.08 0 0 0-.894.972c0 1.217 2.587 1.663 3.5 1.663 2.527 0 4.267-1.338 4.267-4zm-2.217 3.02c0 1.078-.555 2.186-1.74 2.186-1.157 0-1.727-1.079-1.727-2.264 0-1.031.571-2.232 1.727-2.232 1.216-.004 1.74 1.23 1.74 2.307zm-6.625-2.806c0-.567 0-1.449-1.063-1.449a1.054 1.054 0 0 0-1.063.925 2.535 2.535 0 0 0-2.11-1.016c-2.035 0-3.668 1.865-3.668 4.3 0 2.5 1.587 4.268 3.668 4.268a2.656 2.656 0 0 0 2.11-1.032c.154.586.417.938 1.063.938 1.063 0 1.063-.879 1.063-1.446zm-5.685 2.759c0-1.063.539-2.264 1.756-2.264 1.17 0 1.709 1.2 1.709 2.264s-.555 2.232-1.709 2.232c-1.199-.002-1.756-1.171-1.756-2.234zm-10.46 2.941a1.115 1.115 0 1 0 2.217 0v-3.866a1.436 1.436 0 1 1 2.866 0v3.866a1.116 1.116 0 1 0 2.22 0v-4.252a2.842 2.842 0 0 0-3.035-2.988 2.393 2.393 0 0 0-2.141.91.939.939 0 0 0-1.019-.819 1.122 1.122 0 0 0-1.107 1.235zm-1.264-5.7c0-.568 0-1.449-1.063-1.449a1.053 1.053 0 0 0-1.063.925 2.54 2.54 0 0 0-2.113-1.016c-2.032 0-3.666 1.865-3.666 4.3 0 2.5 1.587 4.268 3.666 4.268a2.657 2.657 0 0 0 2.113-1.032c.154.586.414.938 1.063.938 1.063 0 1.063-.878 1.063-1.446zm-5.685 2.759c0-1.063.539-2.264 1.756-2.264 1.17 0 1.709 1.2 1.709 2.264s-.555 2.232-1.709 2.232c-1.204-.002-1.756-1.171-1.756-2.234zm-15.546 2.8a1.581 1.581 0 0 0-.016.264 1.066 1.066 0 0 0 1.11 1.107c.784 0 1.092-.353 1.2-1.076l.909-6.271h.031l1.847 6.456a1.3 1.3 0 0 0 2.465 0l1.85-6.456h.031l.909 6.271c.107.724.414 1.076 1.2 1.076a1.066 1.066 0 0 0 1.11-1.107 1.575 1.575 0 0 0-.016-.264l-1.433-8.6a1.551 1.551 0 0 0-1.511-1.186 1.645 1.645 0 0 0-1.54 1.11l-1.818 6.1h-.031l-1.816-6.1a1.646 1.646 0 0 0-1.542-1.11 1.548 1.548 0 0 0-1.508 1.186zm-9.046.138a1.116 1.116 0 1 0 2.22 0v-3.4c0-.881.677-1.173 1.339-1.48s1.326-.354 1.326-1.078a1.083 1.083 0 0 0-1.079-1.188 1.751 1.751 0 0 0-1.555.925h-.031c0-.708-.492-.925-1.079-.925a1.092 1.092 0 0 0-1.141 1.11v6.039zm-1.725-2.217c.677 0 .972-.323.972-.987a3.99 3.99 0 1 0-7.967.263 4.042 4.042 0 0 0 4.161 4.268c1.649 0 3.621-.925 3.621-1.879a.985.985 0 0 0-.909-.956c-.586 0-1.373.894-2.512.894a1.916 1.916 0 0 1-2.095-1.6zm-4.775-1.48a1.781 1.781 0 0 1 1.756-1.693 1.756 1.756 0 0 1 1.772 1.693zm-5.763 3.7a1.116 1.116 0 1 0 2.22 0v-5.115h.63a.974.974 0 1 0 0-1.941h-.63v-1.326a1.116 1.116 0 1 0-2.22 0v1.326h-.492a.949.949 0 0 0-.972.969.9.9 0 0 0 .972.972h.492zm-9.105 0a1.116 1.116 0 1 0 2.22 0v-3.866a1.436 1.436 0 1 1 2.866 0v3.866a1.115 1.115 0 1 0 2.217 0v-4.252a2.842 2.842 0 0 0-3.035-2.988 2.4 2.4 0 0 0-2.142.91.935.935 0 0 0-1.016-.818 1.123 1.123 0 0 0-1.11 1.235zm-3.449 0a1.115 1.115 0 1 0 2.217 0v-5.914a1.115 1.115 0 1 0-2.217 0zm1.107-10.476a1.28 1.28 0 0 0-1.248 1.217 1.3 1.3 0 0 0 1.248 1.278 1.248 1.248 0 1 0 0-2.5zm-6.24 10.476a1.116 1.116 0 1 0 2.22 0v-3.4c0-.881.677-1.173 1.339-1.48s1.326-.354 1.326-1.078a1.083 1.083 0 0 0-1.079-1.188 1.751 1.751 0 0 0-1.555.925h-.031c0-.708-.492-.925-1.079-.925a1.092 1.092 0 0 0-1.141 1.11zm-8.472.031a1.156 1.156 0 1 0 2.311 0v-2.527h1.709a3.622 3.622 0 0 0 3.853-3.65 3.666 3.666 0 0 0-3.944-3.681h-2.728a1.108 1.108 0 0 0-1.2 1.2zm2.311-7.826h1.569a1.634 1.634 0 0 1 0 3.267h-1.571zm-16.715 7.779a1.129 1.129 0 0 0 1.217 1.157h2.681a4.981 4.981 0 0 0 5.268-5.331c0-3.421-1.972-5.638-5.422-5.638h-2.56a1.131 1.131 0 0 0-1.185 1.186zm2.311-7.685h1.4c2.126 0 3.051 1.433 3.051 3.4 0 1.85-.909 3.313-2.9 3.313h-1.555zm-7.673-2.311c-1.712 0-3.358 1.292-3.358 2.5a1.062 1.062 0 0 0 1 1.138c1.047 0 .847-1.509 2.311-1.509a1.017 1.017 0 0 1 1.11 1.032c0 1.709-2.188.615-2.188 2.233 0 1.819 2.618.231 2.618 2.388a1.424 1.424 0 0 1-1.449 1.434c-1.74 0-1.493-1.8-2.54-1.8a1.164 1.164 0 0 0-1.188 1.031c0 1.217 1.417 2.9 3.7 2.9a3.661 3.661 0 0 0 3.882-3.4 3.066 3.066 0 0 0-1.881-2.756 2.687 2.687 0 0 0 1.264-2.359 3.041 3.041 0 0 0-3.281-2.834zm-8.936.523a1.116 1.116 0 1 0-2.22 0v3.02a3.21 3.21 0 0 0-2.11-.771c-2.386 0-3.574 2.235-3.574 4.39 0 2.1 1.417 4.176 3.653 4.176a2.415 2.415 0 0 0 2.032-1.016 1.063 1.063 0 0 0 1.11.922 1.121 1.121 0 0 0 1.11-1.232v-9.489zm-2.22 6.469c0 1.079-.524 2.312-1.74 2.312-1.154 0-1.725-1.2-1.725-2.233 0-1.047.571-2.264 1.725-2.264 1.185-.002 1.742 1.105 1.742 2.183zm-13.928 1.11c0 1.973 1.31 3.236 3.653 3.236s3.65-1.264 3.65-3.236v-4a1.115 1.115 0 1 0-2.217 0v3.958a1.433 1.433 0 1 1-2.866 0v-3.958a1.116 1.116 0 1 0-2.22 0zm-4.914-5.33a4.129 4.129 0 0 0-3.976 4.3 3.986 3.986 0 1 0 7.951 0 4.129 4.129 0 0 0-3.975-4.302zm0 2.035c1.217 0 1.756 1.2 1.756 2.264s-.555 2.233-1.756 2.233-1.756-1.17-1.756-2.233.54-2.266 1.756-2.266zm-7.1 5.205a1.115 1.115 0 1 0 2.217 0v-9.489a1.115 1.115 0 1 0-2.217 0zm-9.754-4.343c0 3.189 2.173 5.669 5.3 5.669 1.139 0 3.465-.339 3.465-1.818a1.083 1.083 0 0 0-1.016-1.047c-.631 0-1.157.646-2.449.646-1.9 0-2.9-1.571-2.9-3.4 0-1.879.985-3.5 2.9-3.5 1.292 0 1.725.539 2.358.539a.978.978 0 0 0 .954-1.032c0-1.357-2.188-1.725-3.311-1.725-3.146-.003-5.303 2.461-5.303 5.666zm14.6-25.7a8.643 8.643 0 0 1 3.384 2.892 7.217 7.217 0 0 1 1.1 4.012 8.073 8.073 0 0 1-2.746 6.227 9.838 9.838 0 0 1-6.891 2.5 9.724 9.724 0 0 1-3.191-.529 10.694 10.694 0 0 1-5.356-4.213 5.21 5.21 0 0 1-.9-2.725 2.932 2.932 0 0 1 .779-2.113 2.855 2.855 0 0 1 3.382-.454 5.287 5.287 0 0 1 1.342 1.342c.063.086.146.214.258.373 1.245 1.724 2.5 2.592 3.762 2.592a3.079 3.079 0 0 0 2.321-1 3.439 3.439 0 0 0 .941-2.472 2.62 2.62 0 0 0-.815-2.1 6.6 6.6 0 0 0-3.1-1.076 3.417 3.417 0 0 1-2-.841 2.69 2.69 0 0 1-.573-1.876 2.525 2.525 0 0 1 .563-1.774 4.038 4.038 0 0 1 2.011-.933 4.364 4.364 0 0 0 2.116-1.013 2.609 2.609 0 0 0 .1-3.431 2.08 2.08 0 0 0-1.6-.633 4.389 4.389 0 0 0-2.743 1.428l-.07.06c-.076.068-.208.2-.393.365a4.444 4.444 0 0 1-2.868 1.524 2.44 2.44 0 0 1-1.785-.753 2.49 2.49 0 0 1-.75-1.826q0-2.392 2.668-4.422a9.748 9.748 0 0 1 6.055-2.029 8.193 8.193 0 0 1 5.776 2.125 6.824 6.824 0 0 1 2.306 5.229 6.216 6.216 0 0 1-.74 3.053 7.823 7.823 0 0 1-2.345 2.488zm15.442-12.138a19.988 19.988 0 0 1 4.551.461 11.149 11.149 0 0 1 3.489 1.431 11.73 11.73 0 0 1 4.2 4.712 14.36 14.36 0 0 1 1.532 6.6q0 6.358-3.528 10.059t-9.65 3.707h-5.609a4.907 4.907 0 0 1-3.275-.817 4.088 4.088 0 0 1-.891-3.062v-18.775a4.726 4.726 0 0 1 .943-3.39 4.651 4.651 0 0 1 3.3-.928zm-3.038 21.283h2.8a7.062 7.062 0 0 0 5.513-2.02q1.821-2.02 1.821-6.094 0-3.736-1.858-5.588a7.617 7.617 0 0 0-5.583-1.855H336.4zm25.005 1.672a5.7 5.7 0 0 1-.761 3.283 3.026 3.026 0 0 1-4.627 0 5.721 5.721 0 0 1-.758-3.283v-18.638a4.729 4.729 0 0 1 .941-3.39 4.653 4.653 0 0 1 3.3-.927h5.544a10.146 10.146 0 0 1 7.222 2.472 8.726 8.726 0 0 1 2.647 6.7 8.985 8.985 0 0 1-2.478 6.727 9.436 9.436 0 0 1-6.883 2.428h-4.142zm0-10.21h2.655a4.775 4.775 0 0 0 3.155-.9 3.331 3.331 0 0 0 1.055-2.678 3.271 3.271 0 0 0-1.029-2.66 4.872 4.872 0 0 0-3.181-.858h-2.655zm15.35 10.135v-12.026a5.89 5.89 0 0 1 .732-3.27 2.555 2.555 0 0 1 2.259-1.061 2.811 2.811 0 0 1 1.61.474 4.09 4.09 0 0 1 1.248 1.435 6.578 6.578 0 0 1 1.959-1.51 4.645 4.645 0 0 1 2.092-.514 2.943 2.943 0 0 1 2.136.878 2.821 2.821 0 0 1 .9 2.09c0 1.2-1.1 2.2-3.3 3-.789.285-1.383.521-1.774.7a3.3 3.3 0 0 0-1.5 1.2 5.293 5.293 0 0 0-.375 2.378v6.227a5.839 5.839 0 0 1-.737 3.283 2.575 2.575 0 0 1-2.264 1.076 2.542 2.542 0 0 1-2.259-1.076 5.91 5.91 0 0 1-.728-3.288zm13.91-21.395a3.473 3.473 0 0 1 3.46-3.457 3.252 3.252 0 0 1 2.407 1.016 3.365 3.365 0 0 1 1 2.441 3.33 3.33 0 0 1-.993 2.446 3.267 3.267 0 0 1-2.415 1 3.416 3.416 0 0 1-3.46-3.447zm6.412 21.395a5.985 5.985 0 0 1-.719 3.3 2.529 2.529 0 0 1-2.233 1.063 2.575 2.575 0 0 1-2.264-1.076 5.816 5.816 0 0 1-.74-3.283v-12.026a5.844 5.844 0 0 1 .735-3.27 2.564 2.564 0 0 1 2.269-1.061 2.525 2.525 0 0 1 2.233 1.061 5.945 5.945 0 0 1 .719 3.27zm3.324.008v-12.026a5.836 5.836 0 0 1 .735-3.27 2.54 2.54 0 0 1 2.256-1.068 2.808 2.808 0 0 1 1.613.474 4.063 4.063 0 0 1 1.245 1.435 5.747 5.747 0 0 1 2.222-1.542 8.537 8.537 0 0 1 3.051-.482 7 7 0 0 1 5.406 2.024 8.364 8.364 0 0 1 1.873 5.873v8.582a5.825 5.825 0 0 1-.74 3.275 2.906 2.906 0 0 1-4.515 0 5.8 5.8 0 0 1-.74-3.275v-6.766a6.419 6.419 0 0 0-.753-3.566 2.813 2.813 0 0 0-2.47-1.063 2.744 2.744 0 0 0-2.41 1.1 6.032 6.032 0 0 0-.776 3.452v6.841a5.8 5.8 0 0 1-.742 3.275 2.569 2.569 0 0 1-2.264 1.076 2.54 2.54 0 0 1-2.256-1.076 5.873 5.873 0 0 1-.737-3.277zm22.6-10.6h-.221a3.965 3.965 0 0 1-2.478-.7 2.259 2.259 0 0 1-.9-1.884 2.232 2.232 0 0 1 .9-1.9 4.975 4.975 0 0 1 2.7-.758v-2.629a5.806 5.806 0 0 1 .74-3.275 2.554 2.554 0 0 1 2.256-1.076 2.509 2.509 0 0 1 2.227 1.076 5.9 5.9 0 0 1 .732 3.275v2.629h.518a4.679 4.679 0 0 1 2.775.708 2.247 2.247 0 0 1 1 1.946 2.169 2.169 0 0 1-.956 1.928 5.053 5.053 0 0 1-2.85.654h-.482v10.6a5.974 5.974 0 0 1-.719 3.288 2.9 2.9 0 0 1-4.5-.013 5.8 5.8 0 0 1-.74-3.275zm15.434 6.258a3.761 3.761 0 0 0 1.383 2.623 4.908 4.908 0 0 0 3.132.941 8.917 8.917 0 0 0 3.749-.967 9.694 9.694 0 0 1 2.548-.966 2.39 2.39 0 0 1 1.725.643 2.238 2.238 0 0 1 .664 1.67q0 1.918-2.686 3.465a12.4 12.4 0 0 1-6.31 1.542 9.9 9.9 0 0 1-7.386-3.02 10.366 10.366 0 0 1-2.965-7.576 10.712 10.712 0 0 1 2.884-7.634 9.464 9.464 0 0 1 7.175-3.053 9.3 9.3 0 0 1 6.948 2.874 9.688 9.688 0 0 1 2.8 7.029 2.415 2.415 0 0 1-.612 1.888 3.7 3.7 0 0 1-2.36.54zm-.076-3.908h7.891a3.692 3.692 0 0 0-1.222-2.54 3.967 3.967 0 0 0-5.26-.058 4.441 4.441 0 0 0-1.412 2.598zm15.395 8.238v-12.026a5.865 5.865 0 0 1 .735-3.27 2.547 2.547 0 0 1 2.256-1.061 2.814 2.814 0 0 1 1.613.474 4.091 4.091 0 0 1 1.245 1.435 6.621 6.621 0 0 1 1.959-1.51 4.652 4.652 0 0 1 2.092-.513 2.952 2.952 0 0 1 2.139.877 2.831 2.831 0 0 1 .9 2.09c0 1.2-1.1 2.2-3.3 3-.789.285-1.383.521-1.777.7a3.3 3.3 0 0 0-1.5 1.2 5.3 5.3 0 0 0-.373 2.378v6.227a5.836 5.836 0 0 1-.74 3.283 2.575 2.575 0 0 1-2.264 1.076 2.534 2.534 0 0 1-2.256-1.076 5.885 5.885 0 0 1-.732-3.284zm13.857-9.377a14.556 14.556 0 0 1 3.655-10.321 13.65 13.65 0 0 1 19.193 0 14.546 14.546 0 0 1 3.668 10.319q0 6.414-3.655 10.341a13.739 13.739 0 0 1-19.227 0q-3.633-3.924-3.637-10.339zm6.677.079a9.457 9.457 0 0 0 1.8 6.039 6.142 6.142 0 0 0 9.535 0 9.472 9.472 0 0 0 1.8-6.039 9.891 9.891 0 0 0-1.777-6.2 6.14 6.14 0 0 0-9.574 0 9.907 9.907 0 0 0-1.787 6.2z" transform="translate(-247.27 -2681.404)"/>
    <path id="Path_47" d="M97.647 2725.687l-22-6.081c-4.364-1.352-4.32-3.954-4.536-7.214-.135-2.05-.3-31.3-.055-35.619.159-2.812.568-5.141 4.591-6.483l21.353-5.9a1.564 1.564 0 0 1 1.347.01l21.311 5.888c4.025 1.342 4.432 3.672 4.591 6.483.242 4.322.083 33.569-.055 35.619-.219 3.26-.172 5.862-4.536 7.214zm-14.329-17.644c.98.073 9.288.151 16.9.164 5.7.01 11.015-.018 12.557-.114a5.632 5.632 0 0 0 2.079-.5 2.879 2.879 0 0 0 1.136-.917 1.459 1.459 0 0 0 .263-.922 2.216 2.216 0 0 0-.208-.789 2.668 2.668 0 0 0-.823-1.037 3.86 3.86 0 0 0-1.451-.635 2.026 2.026 0 0 1-1.639-1.623 7.7 7.7 0 0 0-1.829-3.973 4.305 4.305 0 0 0-2.9-1.279 2.008 2.008 0 0 1-1.886-1.233 11.594 11.594 0 0 0-2.949-4.208h.005-.005a9.539 9.539 0 0 0-4.234-2.138c-.221-.052-.5-.1-.831-.154-.281-.042-.571-.075-.865-.1-7.97-.636-9.5 6.45-9.676 7.422a2.033 2.033 0 0 1-1.86 1.855 7.163 7.163 0 0 0-1.524.278 6.77 6.77 0 0 0-1.383.579 6.079 6.079 0 0 0-3.121 5.883 3.409 3.409 0 0 0 .993 2.548 6.044 6.044 0 0 0 3.251.893z" class="cls-2" transform="translate(-70.926 -2664.244)"/>
    <path id="Path_4128" d="M97.647 2725.687l-22-6.081c-4.364-1.352-4.32-3.954-4.536-7.214-.135-2.05-.3-31.3-.055-35.619.159-2.812.568-5.141 4.591-6.483l21.353-5.9a1.564 1.564 0 0 1 1.347.01l21.311 5.888c4.025 1.342 4.432 3.672 4.591 6.483.242 4.322.083 33.569-.055 35.619-.219 3.26-.172 5.862-4.536 7.214zm-14.329-17.644c.98.073 9.288.151 16.9.164 5.7.01 11.015-.018 12.557-.114a5.632 5.632 0 0 0 2.079-.5 2.879 2.879 0 0 0 1.136-.917 1.459 1.459 0 0 0 .263-.922 2.216 2.216 0 0 0-.208-.789 2.668 2.668 0 0 0-.823-1.037 3.86 3.86 0 0 0-1.451-.635 2.026 2.026 0 0 1-1.639-1.623 7.7 7.7 0 0 0-1.829-3.973 4.305 4.305 0 0 0-2.9-1.279 2.008 2.008 0 0 1-1.886-1.233 11.594 11.594 0 0 0-2.949-4.208h.005-.005a9.539 9.539 0 0 0-4.234-2.138c-.221-.052-.5-.1-.831-.154-.281-.042-.571-.075-.865-.1-7.97-.636-9.5 6.45-9.676 7.422a2.033 2.033 0 0 1-1.86 1.855 7.163 7.163 0 0 0-1.524.278 6.77 6.77 0 0 0-1.383.579 6.079 6.079 0 0 0-3.121 5.883 3.409 3.409 0 0 0 .993 2.548 6.044 6.044 0 0 0 3.251.893z" class="cls-2" transform="translate(-70.926 -2664.245)"/>
</svg>
