<svg xmlns="http://www.w3.org/2000/svg" xmlns:xlink="http://www.w3.org/1999/xlink" width="304" height="73" viewBox="0 0 304 73">
  <defs>
    <clipPath id="clip-logo">
      <rect width="304" height="73"/>
    </clipPath>
  </defs>
  <g id="logo" clip-path="url(#clip-logo)">
    <path id="Path_1608" style="fill:#FFFFFF;" data-name="Path 1608" d="M31.49-33.229,19.975-11.045V0H11.891V-11.045L.376-33.229H9.588L15.98-19.693l6.392-13.536Zm15.369,6.674a14.748,14.748,0,0,1,6.979,1.622,11.888,11.888,0,0,1,4.841,4.677,14.044,14.044,0,0,1,1.763,7.144A14.044,14.044,0,0,1,58.68-5.969a11.888,11.888,0,0,1-4.841,4.677A14.748,14.748,0,0,1,46.859.329a14.888,14.888,0,0,1-7-1.622,11.85,11.85,0,0,1-4.865-4.677,14.044,14.044,0,0,1-1.763-7.144,14.044,14.044,0,0,1,1.763-7.144,11.85,11.85,0,0,1,4.865-4.677A14.888,14.888,0,0,1,46.859-26.555Zm0,6.956a5.121,5.121,0,0,0-3.878,1.668,6.759,6.759,0,0,0-1.575,4.817,6.672,6.672,0,0,0,1.575,4.794,5.156,5.156,0,0,0,3.878,1.645,5.081,5.081,0,0,0,3.854-1.645,6.736,6.736,0,0,0,1.551-4.794,6.824,6.824,0,0,0-1.551-4.817A5.048,5.048,0,0,0,46.859-19.6ZM90.71-26.226V0H82.626V-4.747a8.713,8.713,0,0,1-3.36,3.666A9.767,9.767,0,0,1,74.072.282,9.078,9.078,0,0,1,66.9-2.726Q64.249-5.734,64.249-11V-26.226h7.99v14.241a5.851,5.851,0,0,0,1.387,4.159,4.873,4.873,0,0,0,3.736,1.48A4.948,4.948,0,0,0,81.216-7.9a6.341,6.341,0,0,0,1.41-4.418V-26.226Zm13.583,4.935a11.4,11.4,0,0,1,3.878-3.807,9.9,9.9,0,0,1,5.146-1.41v8.6h-2.3a7.943,7.943,0,0,0-4.958,1.363q-1.763,1.363-1.763,4.606V0H96.256V-26.226h8.037ZM143.538-6.157h10.716V0H135.5V-33.229h8.037Zm30.221-27.589a16.907,16.907,0,0,1,8.531,2.185,15.922,15.922,0,0,1,6.039,6.063,17.391,17.391,0,0,1,2.209,8.766,17.376,17.376,0,0,1-2.232,8.789,16.044,16.044,0,0,1-6.063,6.086A16.816,16.816,0,0,1,173.759.329a16.816,16.816,0,0,1-8.484-2.186,16.044,16.044,0,0,1-6.063-6.086,17.376,17.376,0,0,1-2.232-8.789,17.247,17.247,0,0,1,2.232-8.766,16.092,16.092,0,0,1,6.063-6.063A16.816,16.816,0,0,1,173.759-33.746Zm0,7.473a8.058,8.058,0,0,0-6.275,2.562,9.991,9.991,0,0,0-2.326,6.979,10.009,10.009,0,0,0,2.326,6.956,8.021,8.021,0,0,0,6.275,2.585,8.039,8.039,0,0,0,6.251-2.585,9.946,9.946,0,0,0,2.35-6.956,10.009,10.009,0,0,0-2.326-6.956A8.021,8.021,0,0,0,173.759-26.273Zm36.848-7.285A16.6,16.6,0,0,1,220.9-30.5a13.015,13.015,0,0,1,5.029,8.272h-8.507a6.56,6.56,0,0,0-2.585-2.844,7.9,7.9,0,0,0-4.183-1.057,7.817,7.817,0,0,0-6.11,2.561,9.984,9.984,0,0,0-2.3,6.933q0,4.747,2.421,7.285a9.064,9.064,0,0,0,6.885,2.538,8.316,8.316,0,0,0,5.029-1.575,8.392,8.392,0,0,0,3.055-4.488H209.479v-5.781h16.873v7.943a16.2,16.2,0,0,1-3.008,5.4,15.486,15.486,0,0,1-5.288,4.042A16.744,16.744,0,0,1,210.7.282a17.475,17.475,0,0,1-8.789-2.139,14.649,14.649,0,0,1-5.8-5.992,18.467,18.467,0,0,1-2.045-8.789,18.467,18.467,0,0,1,2.045-8.789,14.692,14.692,0,0,1,5.781-5.993A17.247,17.247,0,0,1,210.607-33.558Zm36.049-.188a16.907,16.907,0,0,1,8.531,2.185,15.922,15.922,0,0,1,6.04,6.063,17.391,17.391,0,0,1,2.209,8.766A17.376,17.376,0,0,1,261.2-7.943a16.044,16.044,0,0,1-6.063,6.086A16.816,16.816,0,0,1,246.656.329a16.816,16.816,0,0,1-8.484-2.186,16.044,16.044,0,0,1-6.063-6.086,17.376,17.376,0,0,1-2.232-8.789,17.247,17.247,0,0,1,2.232-8.766,16.092,16.092,0,0,1,6.063-6.063A16.816,16.816,0,0,1,246.656-33.746Zm0,7.473a8.058,8.058,0,0,0-6.275,2.562,9.991,9.991,0,0,0-2.326,6.979,10.009,10.009,0,0,0,2.326,6.956,8.021,8.021,0,0,0,6.275,2.585,8.039,8.039,0,0,0,6.251-2.585,9.946,9.946,0,0,0,2.35-6.956,10.009,10.009,0,0,0-2.326-6.956A8.021,8.021,0,0,0,246.656-26.273Z" transform="translate(19.624 52.746)"/>
  </g>
</svg>
