<svg width="1555" height="547" viewBox="0 0 1555 547" fill="none" xmlns="http://www.w3.org/2000/svg">
<path d="M598.395 207.805C598.395 206.148 599.738 204.805 601.395 204.805H665.386C681.397 204.805 695.511 207.911 707.73 214.124C720.089 220.195 729.639 228.808 736.38 239.962C743.262 251.117 746.703 264.107 746.703 278.932C746.703 293.757 743.262 306.747 736.38 317.902C729.639 329.056 720.089 337.74 707.73 343.952C695.511 350.023 681.397 353.059 665.386 353.059H601.395C599.738 353.059 598.395 351.716 598.395 350.059V207.805ZM663.701 324.891C678.448 324.891 690.175 320.796 698.882 312.607C707.73 304.276 712.154 293.051 712.154 278.932C712.154 264.813 707.73 253.658 698.882 245.469C690.175 237.138 678.448 232.973 663.701 232.973H632.523V324.891H663.701Z" fill="#71D1B8"/>
<path d="M766.963 271.979C766.963 253.829 781.676 239.115 799.827 239.115V239.115V353.059H766.963V271.979ZM783.395 223.231C777.356 223.231 772.44 221.466 768.648 217.936C764.856 214.406 762.96 210.029 762.96 204.805C762.96 199.581 764.856 195.204 768.648 191.674C772.44 188.144 777.356 186.379 783.395 186.379C789.434 186.379 794.349 188.073 798.141 191.462C801.933 194.851 803.829 199.087 803.829 204.17C803.829 209.676 801.933 214.265 798.141 217.936C794.349 221.466 789.434 223.231 783.395 223.231Z" fill="#71D1B8"/>
<path d="M872.881 237.421C890.436 237.421 903.919 241.657 913.329 250.128C922.738 258.459 927.443 271.096 927.443 288.039V353.059H896.686V338.869C890.507 349.459 878.99 354.753 862.137 354.753C853.43 354.753 845.846 353.271 839.385 350.306C833.065 347.341 828.22 343.246 824.849 338.022C821.479 332.798 819.794 326.868 819.794 320.231C819.794 309.642 823.726 301.311 831.591 295.24C839.596 289.169 851.885 286.133 868.457 286.133H894.579C894.579 278.932 892.403 273.425 888.049 269.613C883.695 265.66 877.165 263.683 868.457 263.683C862.418 263.683 856.449 264.671 850.551 266.648C844.792 268.484 839.877 271.025 835.804 274.273L825.188 253.5C824.51 252.172 824.905 250.541 826.158 249.734C831.876 246.053 838.533 243.149 846.127 241.021C854.834 238.621 863.752 237.421 872.881 237.421ZM870.353 332.515C875.971 332.515 880.956 331.245 885.31 328.703C889.664 326.02 892.754 322.138 894.579 317.055V305.406H872.038C858.556 305.406 851.815 309.854 851.815 318.749C851.815 322.985 853.43 326.373 856.66 328.915C860.03 331.315 864.595 332.515 870.353 332.515Z" fill="#71D1B8"/>
<path d="M1016.38 241.657C1026.64 241.657 1035.9 244.057 1044.19 248.858C1052.48 253.658 1058.94 260.294 1063.57 268.766C1068.35 277.238 1070.73 286.909 1070.73 297.781C1070.73 308.653 1068.35 318.396 1063.57 327.009C1058.94 335.48 1052.48 342.117 1044.19 346.917C1035.9 351.577 1026.64 353.906 1016.38 353.906C1006.69 353.906 997.915 351.647 990.05 347.129C982.185 342.47 976.076 336.045 971.722 327.856V394.147H961.189V252.616C961.189 247.031 965.716 242.504 971.301 242.504V242.504V268.554C975.655 260.083 981.764 253.517 989.629 248.858C997.634 244.057 1006.55 241.657 1016.38 241.657ZM1015.75 344.376C1024.18 344.376 1031.76 342.399 1038.5 338.445C1045.24 334.492 1050.51 328.985 1054.3 321.926C1058.24 314.866 1060.2 306.818 1060.2 297.781C1060.2 288.745 1058.24 280.697 1054.3 273.637C1050.51 266.577 1045.24 261.071 1038.5 257.117C1031.76 253.164 1024.18 251.187 1015.75 251.187C1007.32 251.187 999.741 253.164 992.999 257.117C986.398 261.071 981.132 266.577 977.199 273.637C973.407 280.697 971.511 288.745 971.511 297.781C971.511 306.818 973.407 314.866 977.199 321.926C981.132 328.985 986.398 334.492 992.999 338.445C999.741 342.399 1007.32 344.376 1015.75 344.376Z" fill="#71D1B8"/>
<path d="M1110.3 266.648C1113.67 258.6 1118.94 252.458 1126.1 248.222C1133.26 243.845 1141.97 241.657 1152.22 241.657V252.034L1149.69 251.823C1137.47 251.823 1127.92 255.706 1121.04 263.471C1114.16 271.096 1110.72 281.756 1110.72 295.452V353.059H1100.19V252.616C1100.19 247.031 1104.71 242.504 1110.3 242.504V242.504V266.648Z" fill="#71D1B8"/>
<path d="M1178.08 253.037C1178.08 247.22 1182.8 242.504 1188.62 242.504V242.504V353.059H1178.08V253.037ZM1183.35 215.606C1180.96 215.606 1178.93 214.83 1177.24 213.277C1175.55 211.582 1174.71 209.535 1174.71 207.135C1174.71 204.734 1175.55 202.687 1177.24 200.993C1178.93 199.298 1180.96 198.451 1183.35 198.451C1185.74 198.451 1187.77 199.298 1189.46 200.993C1191.14 202.546 1191.99 204.523 1191.99 206.923C1191.99 209.323 1191.14 211.37 1189.46 213.065C1187.77 214.759 1185.74 215.606 1183.35 215.606Z" fill="#71D1B8"/>
<path d="M1283.57 241.657C1297.33 241.657 1308.22 245.681 1316.22 253.729C1324.23 261.777 1328.23 273.355 1328.23 288.463V353.059H1317.7V289.31C1317.7 276.885 1314.54 267.425 1308.22 260.93C1302.04 254.435 1293.33 251.187 1282.1 251.187C1269.18 251.187 1258.99 255.07 1251.55 262.836C1244.11 270.602 1240.39 281.05 1240.39 294.181V353.059H1229.85V252.616C1229.85 247.031 1234.38 242.504 1239.96 242.504V242.504V266.436C1243.76 258.671 1249.37 252.599 1256.82 248.222C1264.4 243.845 1273.32 241.657 1283.57 241.657Z" fill="#71D1B8"/>
<path d="M1423 346.07C1420.33 348.611 1416.96 350.588 1412.89 352C1408.96 353.271 1404.81 353.906 1400.46 353.906C1390.91 353.906 1383.54 351.294 1378.34 346.07C1373.14 340.705 1370.54 333.292 1370.54 323.832V251.611H1350.32V242.504H1370.54V228.893C1370.54 223.075 1375.26 218.36 1381.08 218.36V218.36V242.504H1416.05V251.611H1381.08V322.773C1381.08 329.974 1382.76 335.48 1386.13 339.293C1389.64 342.964 1394.77 344.799 1401.51 344.799C1408.39 344.799 1414.08 342.752 1418.58 338.657L1423 346.07Z" fill="#71D1B8"/>
<path fill-rule="evenodd" clip-rule="evenodd" d="M455.146 262.77C455.166 262.77 455.18 262.789 455.174 262.808V262.808C455.168 262.828 455.182 262.848 455.202 262.847C455.95 262.821 456.701 262.808 457.456 262.808V262.808C462.282 262.808 461.763 267.087 456.937 267.087H204.448C201.521 267.087 200.888 263.59 203.724 262.855V262.855C203.939 262.799 204.168 262.77 204.39 262.77H455.146ZM454.407 255.37C455.798 255.37 456.84 256.668 456.508 258.039V258.039C456.271 259.016 455.399 259.686 454.408 259.686H218.232C217.197 259.686 216.291 258.973 216.09 257.942V257.942C215.826 256.59 216.876 255.37 218.234 255.37H454.407ZM455.773 247.97C457.067 247.97 458.082 249.105 457.915 250.407V250.407C457.776 251.494 456.854 252.286 455.773 252.286H217.872C216.47 252.286 215.301 251.177 215.301 249.754V249.754V249.754C215.301 248.756 216.114 247.97 217.096 247.97H455.773ZM457.653 240.57C458.113 240.57 458.487 240.945 458.487 241.411V241.411V241.411C458.487 243.358 456.895 244.886 454.977 244.886H218.095C216.754 244.886 215.709 243.693 215.944 242.353V242.353C216.128 241.304 217.043 240.57 218.094 240.57H457.653ZM456.059 233.17C457.171 233.17 458.11 234.008 458.21 235.132V235.132C458.323 236.406 457.318 237.486 456.058 237.486H220.126C218.617 237.486 217.536 236.006 218.076 234.574V234.574C218.399 233.717 219.22 233.17 220.125 233.17H456.059ZM454.991 225.769C456.014 225.769 456.905 226.482 457.109 227.5V227.5C457.38 228.848 456.346 230.086 454.991 230.086H223.769C222.074 230.086 220.991 228.273 221.888 226.813V226.813C222.29 226.158 223.005 225.769 223.766 225.769H454.991ZM453.069 218.369C454.003 218.369 454.839 218.966 455.128 219.868V219.868C455.578 221.274 454.524 222.686 453.068 222.686H229.422C227.514 222.686 226.473 220.488 227.782 219.079V219.079C228.204 218.624 228.801 218.369 229.417 218.369H453.069ZM450.22 210.969C451.066 210.969 451.84 211.459 452.193 212.24V212.24C452.844 213.682 451.781 215.286 450.219 215.286H238.042C235.856 215.286 234.917 212.621 236.726 211.374V211.374C237.108 211.11 237.567 210.969 238.03 210.969H450.22ZM446.33 203.569C447.088 203.569 447.795 203.962 448.19 204.617V204.617C449.065 206.07 448.006 207.886 446.329 207.886H308.137C306.46 207.886 305.401 206.07 306.276 204.617V204.617C306.671 203.962 307.378 203.569 308.135 203.569H446.33ZM441.217 196.169C441.883 196.169 442.517 196.472 442.932 197.001V197.001C444.056 198.433 443.019 200.486 441.215 200.486H313.251C311.447 200.486 310.41 198.433 311.534 197.001V197.001C311.949 196.472 312.583 196.169 313.249 196.169H441.217ZM434.56 188.769C435.131 188.769 435.683 188.991 436.095 189.392V189.392C437.5 190.764 436.506 193.086 434.556 193.086H319.909C317.96 193.086 316.966 190.764 318.371 189.392V189.392C318.783 188.991 319.335 188.769 319.906 188.769H434.56ZM425.738 181.369C426.205 181.369 426.664 181.515 427.045 181.79V181.79C428.783 183.044 427.865 185.686 425.732 185.686H328.734C326.601 185.686 325.683 183.044 327.421 181.79V181.79C327.802 181.515 328.26 181.369 328.727 181.369H425.738ZM413.197 173.969C413.54 173.969 413.884 174.046 414.195 174.194V174.194C416.381 175.232 415.595 178.286 413.181 178.286H341.285C338.871 178.286 338.085 175.232 340.271 174.194V174.194C340.582 174.046 340.925 173.969 341.269 173.969H413.197ZM387.67 166.569V166.569C391.281 166.999 390.786 170.886 387.15 170.886H367.316C363.68 170.886 363.185 166.999 366.796 166.569V166.569H387.67ZM252.443 203.693C252.697 203.612 252.968 203.569 253.234 203.569H291.47C291.736 203.569 292.007 203.612 292.26 203.693V203.693C294.907 204.542 294.192 207.886 291.417 207.886H253.287C250.512 207.886 249.797 204.542 252.443 203.693V203.693ZM186.285 274.487C183.998 274.487 183.125 271.645 185.106 270.486V270.486C185.459 270.279 185.866 270.17 186.272 270.17H486.312C486.707 270.17 487.1 270.27 487.447 270.462V270.462C489.497 271.597 488.629 274.487 486.293 274.487H186.285ZM176.043 281.887C174.03 281.887 173.036 279.486 174.548 278.137V278.137C174.958 277.771 175.492 277.57 176.037 277.57H496.748C497.297 277.57 497.833 277.771 498.244 278.14V278.14C499.75 279.494 498.751 281.887 496.74 281.887H176.043ZM169.073 289.287C167.263 289.287 166.206 287.254 167.331 285.815V285.815C167.75 285.279 168.395 284.97 169.07 284.97H503.603C504.285 284.97 504.935 285.283 505.353 285.831V285.831C506.454 287.273 505.396 289.287 503.599 289.287H169.073ZM218.683 371.921C183.916 369.748 156.522 345.632 156.522 316.202C156.522 308.51 158.393 301.18 161.779 294.511C162.662 292.772 164.467 291.753 166.394 291.753H506.148C508.094 291.753 509.915 292.793 510.79 294.557C514.238 301.501 516.165 309.233 516.175 317.382C516.175 317.403 516.175 317.423 516.175 317.444C516.175 317.465 516.175 317.485 516.175 317.506C516.14 346.238 492.271 369.775 461.975 371.921H218.683Z" fill="url(#paint0_linear)"/>
<defs>
<linearGradient id="paint0_linear" x1="336.472" y1="154.992" x2="336.472" y2="332.641" gradientUnits="userSpaceOnUse">
<stop stop-color="#2CB894"/>
<stop offset="1" stop-color="#71D1B8"/>
</linearGradient>
</defs>
</svg>
