<?xml version="1.0" encoding="utf-8"?>
<!-- Generator: Adobe Illustrator 23.1.1, SVG Export Plug-In . SVG Version: 6.00 Build 0)  -->
<svg version="1.1" id="katman_1" xmlns="http://www.w3.org/2000/svg" xmlns:xlink="http://www.w3.org/1999/xlink" x="0px" y="0px"
	 viewBox="0 0 1366 768" style="enable-background:new 0 0 1366 768;" xml:space="preserve">
<style type="text/css">
	.st0{fill:none;stroke:#000000;stroke-width:6;}
	.st1{fill:none;stroke:#000000;stroke-width:6;stroke-miterlimit:10;}
</style>
<g>
	<path d="M247.97,422.72l-27.47,35.26H99.34V320.84h42.44v101.89H247.97z"/>
	<path d="M769.51,422.93h-71.75v35.06h-42.23v-70.11h118.08c13.12,0,20.71-6.35,20.71-15.79c0-9.63-7.58-15.58-20.71-15.58H655.53
		l28.09-35.67h86.1c42.44,0,67.24,20.91,67.24,51.46C836.96,402.63,812.16,422.93,769.51,422.93z"/>
	<path class="st0" d="M921.44,424.98h93.89c9.23,0,13.12-3.28,13.12-9.64c0-5.94-3.89-9.23-13.12-9.23h-82.21l21.93-29.31h60.89
		c6.15,0,11.89-2.26,11.89-9.23c0-6.77-5.94-8.82-11.89-8.82h-114.8l27.26-35.67h85.69c32.8,0,53.92,12.71,53.92,37.93
		c0,16.19-9.22,25.21-18.66,28.7c11.89,3.48,21.53,14.15,21.53,30.54c0,22.76-12.5,39.98-55.76,39.98H894.38L921.44,424.98z"/>
	<path class="st1" d="M1184.04,460.24h-91.84v-85.49h42.64v50.23h49.2c23.58,0,40.59-13.12,40.59-32.8
		c0-19.27-17.63-33.42-40.59-33.42h-91.84l27.06-35.67h64.78c47.97,0,82.62,27.67,82.62,67.24
		C1266.66,430.1,1231.6,460.24,1184.04,460.24z"/>
	<g>
		<g>
			<path d="M327.75,355.33l28.38-36.72c-1.13-0.01-2.26-0.03-3.41-0.03c-5.19,0-10.15,0.15-14.94,0.41l-35.02,45.33
				C308.05,359.31,316.17,356.63,327.75,355.33z M294.71,389.31c0-8.32,1.22-14.73,3.93-19.65l-39.82,51.54
				c2.19,4.65,4.95,8.86,8.28,12.65l28.1-36.37C294.87,394.97,294.71,392.27,294.71,389.31z M352.72,354.25
				c1.12,0,2.21,0.01,3.3,0.01l26.25-33.97c-5.28-0.67-10.84-1.15-16.71-1.42L338,354.55C342.49,354.34,347.39,354.25,352.72,354.25
				z M297.6,406.83l-25.05,32.42c3.45,2.98,7.32,5.64,11.65,7.97l22.87-29.6C302.7,415.01,299.6,411.5,297.6,406.83z M314.27,420.77
				l-23.01,29.78c4.34,1.81,9.04,3.35,14.11,4.64l24.35-31.52C323.72,423.08,318.6,422.15,314.27,420.77z M382.08,355.91l23.72-30.7
				c-4.63-1.44-9.61-2.63-14.91-3.59l-25.38,32.85C371.75,354.71,377.26,355.16,382.08,355.91z M352.72,424.57
				c-4.99,0-9.59-0.08-13.85-0.27l-25.28,32.72c5.37,1.01,11.11,1.77,17.19,2.31l26.88-34.79
				C356.05,424.55,354.42,424.57,352.72,424.57z M367.51,424.26l-27.57,35.68c4.12,0.19,8.37,0.29,12.78,0.29
				c1.72,0,3.4-0.02,5.08-0.05l29.65-38.38C381.94,423.13,375.34,423.88,367.51,424.26z M403.54,365.16l23.35-30.22
				c-4.04-2.69-8.56-5.03-13.53-7.03l-23.03,29.81C395.99,359.38,400.34,361.78,403.54,365.16z M634.34,366.24l-71.65,92.73
				c7.38-0.78,14.21-1.94,20.49-3.48l54.13-70.06C637.05,378.45,636.05,372.07,634.34,366.24z M562.37,423.55l-28.33,36.66
				c1.03,0.01,2.06,0.02,3.11,0.02c5.3,0,10.37-0.16,15.25-0.44l33.89-43.86C580.9,420.1,573.08,422.39,562.37,423.55z
				 M309.08,322.7l-56.38,72.96c0.39,6.19,1.38,11.9,2.95,17.15l71.88-93.02C320.95,320.47,314.79,321.43,309.08,322.7z
				 M410.74,389.31c0,0.83-0.02,1.63-0.04,2.42l31.91-41.3c-2.69-4.02-5.91-7.64-9.65-10.87l-25.05,32.42
				C409.84,376.55,410.74,382.23,410.74,389.31z M522.64,354.59l27.58-35.7c-4.21-0.2-8.55-0.31-13.06-0.31
				c-1.61,0-3.2,0.02-4.78,0.04l-29.78,38.54C508.1,355.78,514.74,354.99,522.64,354.59z M507.18,422.59l-23.78,30.78
				c5.3,1.69,11.05,3.07,17.27,4.13l25.59-33.12C518.92,424.12,512.6,423.56,507.18,422.59z M487.02,413.16l-23.81,30.81
				c3.81,2.52,8.03,4.73,12.67,6.65l23.21-30.04C493.95,418.85,489.97,416.45,487.02,413.16z M538.16,424.57
				c-0.82,0-1.61-0.01-2.4-0.01l-26.41,34.18c4.84,0.57,9.93,0.98,15.26,1.23l27.56-35.66
				C547.86,424.48,543.21,424.57,538.16,424.57z M480.14,389.31c0-1.09,0.03-2.14,0.07-3.17l-32.78,42.42
				c2.71,4,5.94,7.6,9.69,10.82l25.65-33.19C480.98,401.68,480.14,396.14,480.14,389.31z M636.99,398.33l-41.17,53.28
				C620.74,442.16,634.51,424.74,636.99,398.33z M252.68,383.21l44.1-57.08C269.15,335.59,254.45,354.17,252.68,383.21z
				 M465.45,333.34l-59.27,76.7c-0.82,1.33-1.76,2.54-2.82,3.65l-35.64,46.13c6.86-0.39,13.32-1.05,19.35-2l103.96-134.54
				C481.15,325.68,472.62,329.02,465.45,333.34z M538.16,354.25c4.29,0,8.29,0.06,12.04,0.19l25.33-32.79
				c-5.07-0.93-10.46-1.64-16.15-2.14l-26.87,34.78C534.34,354.27,536.21,354.25,538.16,354.25z M596.17,389.31
				c0,7.24-0.93,13.03-2.95,17.68l37.99-49.17c-2.17-4.68-4.92-8.91-8.23-12.71l-27.38,35.44
				C595.98,383.2,596.17,386.11,596.17,389.31z M502.41,321.03L398.45,455.58c10.4-2.52,19.32-6.07,26.75-10.71l97.27-125.89
				C515.34,319.36,508.65,320.04,502.41,321.03z M593.08,371.33l24.46-31.65c-3.14-2.73-6.65-5.17-10.52-7.35l-22.54,29.17
				C588.35,363.94,591.19,367.15,593.08,371.33z M577.38,358.21l22.67-29.35c-4.93-2.16-10.35-3.96-16.26-5.43l-24.36,31.53
				C566.55,355.56,572.49,356.58,577.38,358.21z"/>
		</g>
	</g>
</g>
</svg>
